# xmcd
#
# Track frame offsets: 
#        150
#        22748
#        44757
#        66082
#        88119
#        106471
#        128120
#        148310
#        166788
#        184871
#
# Disc length: 2677 seconds
#
# Revision: 0
# Processed by: cddbd v1.5.1PL0 Copyright (c) Steve Scherf et al.
# Submitted via: ExactAudioCopy v0.95b3
#
DISCID=8a0a730a
DTITLE=Criag Thatcher and James Supra - Hard Times
DYEAR=2005
DGENRE=Blues
TTITLE0=Come In My Kitchen
TTITLE1=Mean Old World
TTITLE2=Help Me
TTITLE3=Hard Times
TTITLE4=Perpetual Blues Machine
TTITLE5=Leave Me Alone
TTITLE6=Malted Milk Blues
TTITLE7=Soon As I Get Paid
TTITLE8=Ramblin On My Mind
TTITLE9=San Francisco Bay Blues
EXTD=
EXTT0=
EXTT1=
EXTT2=
EXTT3=
EXTT4=
EXTT5=
EXTT6=
EXTT7=
EXTT8=
EXTT9=
PLAYORDER=
